<?xml version="1.0" encoding="utf-8"?>
<!-- Generator: Adobe Illustrator 24.3.0, SVG Export Plug-In . SVG Version: 6.00 Build 0)  -->
<svg version="1.1" xmlns="http://www.w3.org/2000/svg" xmlns:xlink="http://www.w3.org/1999/xlink" x="0px" y="0px"
	 viewBox="0 0 1920 1080" style="enable-background:new 0 0 1920 1080;" xml:space="preserve">
<style type="text/css">
	.st0{fill:none;}
	.st1{font-family:'ACaslonPro-SemiboldItalic';}
	.st2{font-size:88.202px;}
	.st3{letter-spacing:9.98;}
	.st4{font-family:'LeagueGothic-Regular';}
	.st5{font-size:352.8082px;}
	.st6{letter-spacing:8.73;}
	.st7{font-family:'RobotoSlab-Light';}
	.st8{font-size:73.5017px;}
	.st9{letter-spacing:6.24;}
	.st10{fill:#231F20;}
</style>
<g id="Layer_2">
	<g id="_x34__1_">
		<rect x="528.07" y="731.03" class="st0" width="825.79" height="235.21"/>
		<text transform="matrix(0.8019 0 0 1 807.8535 790.5684)" class="st1 st2 st3">SMITH</text>
		<rect x="465.34" y="414.17" class="st0" width="931.73" height="308.87"/>
		<text transform="matrix(0.8019 0 0 1 498.624 673.4795)" class="st4 st5 st6">RANDOLPH</text>
		<rect x="698.41" y="258.87" class="st0" width="500.04" height="235.21"/>
		<text transform="matrix(0.8019 0 0 1 922.1104 314.8584)" class="st7 st8 st9">J.</text>
		<path class="st10" d="M1399,605.73l6.94-8.96c25.41-32.8,25.41-80.45,0-113.25l-6.94-8.96l4.55-10.59
			c16.65-38.76,5.19-84.78-27.25-109.39l-8.86-6.72l1.85-11.49c6.76-42.08-15.39-83.34-52.64-98.08l-10.18-4.03l-0.98-11.62
			c-3.59-42.52-34.92-76.22-74.45-80.08l-10.8-1.06l-3.74-10.95c-12.05-35.25-43.19-57.93-77.13-57.93c-4.65,0-9.34,0.42-14.05,1.3
			l-10.68,1.99l-6.25-9.53c-15.83-24.14-41.18-37.48-67.24-37.48c-11.61,0-23.35,2.65-34.46,8.17l-9.84,4.89l-8.33-7.47
			C973.26,20.83,954.56,14,935.86,14s-37.4,6.83-52.64,20.5l-8.33,7.47l-9.84-4.89c-11.1-5.52-22.85-8.17-34.46-8.17
			c-26.06,0-51.41,13.34-67.24,37.48l-6.25,9.53l-10.68-1.99c-4.71-0.88-9.41-1.3-14.05-1.3c-33.94,0-65.07,22.68-77.13,57.93
			l-3.74,10.95l-10.8,1.06c-39.53,3.87-70.86,37.56-74.45,80.08l-0.98,11.62l-10.18,4.03c-37.26,14.74-59.4,56-52.64,98.08
			l1.85,11.49l-8.86,6.72c-32.44,24.61-43.9,70.63-27.25,109.39l4.55,10.59l-6.94,8.96c-25.41,32.8-25.41,80.45,0,113.25l6.94,8.96
			l-4.55,10.59c-16.65,38.76-5.19,84.78,27.25,109.39l8.86,6.72l-1.85,11.49c-6.76,42.08,15.39,83.34,52.64,98.08l10.18,4.03
			l0.98,11.62c3.59,42.52,34.92,76.22,74.45,80.08l10.8,1.06l3.74,10.95c12.05,35.25,43.19,57.93,77.13,57.93
			c4.65,0,9.34-0.42,14.05-1.3l10.68-1.99l6.25,9.53c15.83,24.14,41.18,37.48,67.24,37.48c11.61,0,23.35-2.65,34.46-8.17l9.84-4.89
			l8.33,7.47c15.25,13.67,33.95,20.5,52.64,20.5s37.4-6.83,52.64-20.5l8.33-7.47l9.84,4.89c11.1,5.52,22.85,8.17,34.46,8.17
			c26.06,0,51.41-13.34,67.24-37.48l6.25-9.53l10.68,1.99c4.71,0.88,9.41,1.3,14.05,1.3c33.94,0,65.07-22.68,77.13-57.93l3.74-10.95
			l10.8-1.06c39.53-3.87,70.86-37.56,74.45-80.08l0.98-11.62l10.18-4.03c37.26-14.74,59.4-56,52.64-98.08l-1.85-11.49l8.86-6.72
			c32.44-24.61,43.9-70.63,27.25-109.39L1399,605.73z M1395.42,492.95c21.19,27.35,21.19,67.04,0,94.39l-2.78,3.59l-5.88-13.67
			c-10.12-23.54-10.12-50.68,0-74.22l5.88-13.67L1395.42,492.95z M1348.97,704.03l3.49,21.73l-16.76,12.71
			c-23.03,17.47-37.69,44.8-40.25,74.98l-1.86,21.97l-19.24,7.61c-26.44,10.46-47.19,32.78-56.92,61.22l-7.08,20.7l-20.42,2
			c-28.06,2.74-53.47,18.52-69.71,43.29l-11.82,18.02l-20.2-3.76c-5.38-1-10.88-1.51-16.34-1.51c-22.4,0-44.21,8.49-61.41,23.92
			l-15.75,14.12l-18.61-9.25c-12.71-6.32-26.25-9.52-40.25-9.52s-27.54,3.2-40.25,9.52l-18.61,9.25l-15.75-14.12
			c-17.21-15.42-39.02-23.92-61.41-23.92c-5.46,0-10.95,0.51-16.34,1.51l-20.2,3.76l-11.82-18.02
			c-16.24-24.77-41.65-40.55-69.71-43.29l-20.42-2l-7.08-20.7c-9.73-28.44-30.47-50.76-56.92-61.22l-19.24-7.61l-1.86-21.97
			c-2.55-30.18-17.22-57.51-40.25-74.98l-16.76-12.71l3.49-21.73c4.8-29.87-2.79-60.35-20.83-83.63l-13.13-16.94l8.6-20.02
			c11.82-27.51,11.82-59.07,0-86.58l-8.6-20.02l13.13-16.94c18.04-23.28,25.63-53.77,20.83-83.63l-3.49-21.73l16.76-12.71
			c23.03-17.47,37.69-44.8,40.25-74.98l1.86-21.97l19.24-7.61c26.44-10.46,47.19-32.78,56.92-61.22l7.08-20.7l20.42-2
			c28.06-2.74,53.47-18.52,69.71-43.29l11.82-18.02l20.21,3.76c5.38,1,10.88,1.51,16.34,1.51c22.4,0,44.21-8.49,61.41-23.92
			L877,59.25l18.61,9.25c12.71,6.32,26.25,9.52,40.25,9.52c14,0,27.54-3.2,40.25-9.52l18.61-9.25l15.75,14.12
			c17.21,15.42,39.02,23.92,61.41,23.92c5.46,0,10.95-0.51,16.34-1.51l20.2-3.76l11.82,18.02c16.24,24.77,41.65,40.55,69.71,43.29
			l20.42,2l7.08,20.7c9.73,28.44,30.47,50.76,56.92,61.22l19.24,7.61l1.86,21.97c2.55,30.18,17.22,57.51,40.25,74.98l16.76,12.71
			l-3.49,21.73c-4.8,29.87,2.79,60.35,20.83,83.63l13.13,16.94l-8.6,20.02c-11.82,27.51-11.82,59.07,0,86.58l8.6,20.02l-13.13,16.94
			C1351.77,643.69,1344.18,674.17,1348.97,704.03z M1368.4,366.62c27.04,20.52,36.6,58.86,22.71,91.17l-1.82,4.24l-8.97-11.57
			c-15.44-19.92-21.96-46.13-17.86-71.69l2.39-14.84L1368.4,366.62z M1311.91,252.11c31.06,12.29,49.51,46.67,43.88,81.74l-0.74,4.6
			l-11.44-8.68c-19.7-14.95-32.32-38.45-34.5-64.28l-1.27-15L1311.91,252.11z M1229.79,157.23c32.96,3.22,59.05,31.29,62.05,66.74
			l0.39,4.65l-13.14-5.2c-22.63-8.95-40.47-28.14-48.79-52.48l-4.83-14.14L1229.79,157.23z M1127.64,88.45
			c3.87-0.72,7.82-1.09,11.72-1.09c28.57,0,54.4,19.4,64.27,48.28l1.5,4.38l-13.95-1.36c-24.01-2.35-45.86-15.91-59.76-37.11
			l-8.07-12.31L1127.64,88.45z M1012.42,50.45c9.09-4.52,18.75-6.81,28.72-6.81c22.27,0,43.22,11.68,56.05,31.24l2.5,3.82
			l-13.8,2.57c-4.66,0.87-9.35,1.29-14.01,1.29c-19.09,0-37.75-7.16-52.64-20.5l-10.76-9.64L1012.42,50.45z M891.98,45.82
			c12.29-11.02,27.87-17.09,43.88-17.09c16,0,31.58,6.07,43.88,17.09l3.34,2.99l-12.71,6.32c-10.94,5.44-22.72,8.16-34.5,8.16
			c-11.78,0-23.55-2.72-34.5-8.16l-12.71-6.32L891.98,45.82z M774.54,74.88c12.83-19.56,33.78-31.24,56.05-31.24
			c9.97,0,19.63,2.29,28.72,6.81l3.94,1.96l-10.76,9.64c-14.89,13.35-33.55,20.5-52.64,20.5c-4.66,0-9.34-0.43-14.01-1.29
			l-13.8-2.57L774.54,74.88z M668.08,135.64c9.88-28.88,35.7-48.28,64.27-48.28c3.91,0,7.85,0.37,11.72,1.09l4.28,0.8l-8.07,12.31
			c-13.9,21.2-35.74,34.76-59.76,37.11l-13.95,1.36L668.08,135.64z M579.88,223.98c3-35.45,29.09-63.52,62.05-66.74l4.32-0.42
			l-4.83,14.14c-8.32,24.34-26.16,43.53-48.79,52.48l-13.14,5.2L579.88,223.98z M515.93,333.86c-5.64-35.08,12.82-69.46,43.88-81.74
			l4.08-1.61l-1.27,15c-2.18,25.83-14.8,49.33-34.5,64.28l-11.44,8.68L515.93,333.86z M480.6,457.79
			c-13.88-32.31-4.33-70.66,22.71-91.17l3.55-2.69l2.39,14.84c4.11,25.56-2.42,51.77-17.86,71.69l-8.97,11.57L480.6,457.79z
			 M476.3,587.34c-21.19-27.35-21.19-67.04,0-94.39l2.78-3.59l5.88,13.67c10.12,23.54,10.12,50.68,0,74.22l-5.88,13.67L476.3,587.34
			z M503.32,713.68c-27.04-20.52-36.6-58.86-22.71-91.17l1.82-4.24l8.97,11.57c15.44,19.92,21.96,46.13,17.86,71.69l-2.39,14.84
			L503.32,713.68z M559.81,828.18c-31.06-12.29-49.51-46.67-43.88-81.74l0.74-4.6l11.44,8.68c19.7,14.95,32.32,38.45,34.5,64.28
			l1.27,15L559.81,828.18z M641.93,923.06c-32.96-3.22-59.05-31.29-62.05-66.74l-0.39-4.65l13.14,5.2
			c22.63,8.95,40.47,28.14,48.79,52.48l4.83,14.14L641.93,923.06z M744.08,991.84c-3.87,0.72-7.82,1.09-11.72,1.09
			c-28.57,0-54.4-19.4-64.27-48.28l-1.5-4.38l13.95,1.36c24.01,2.35,45.86,15.91,59.76,37.11l8.07,12.31L744.08,991.84z
			 M859.3,1029.85c-9.09,4.52-18.75,6.81-28.72,6.81c-22.27,0-43.22-11.68-56.05-31.24l-2.5-3.82l13.8-2.57
			c4.66-0.87,9.35-1.29,14.01-1.29c19.09,0,37.75,7.16,52.64,20.5l10.76,9.64L859.3,1029.85z M979.74,1034.47
			c-12.29,11.02-27.87,17.09-43.88,17.09c-16,0-31.58-6.07-43.88-17.09l-3.34-2.99l12.71-6.32c10.94-5.44,22.72-8.16,34.5-8.16
			c11.78,0,23.56,2.72,34.5,8.16l12.71,6.32L979.74,1034.47z M1097.18,1005.42c-12.83,19.56-33.78,31.24-56.05,31.24
			c-9.96,0-19.63-2.29-28.72-6.81l-3.94-1.96l10.76-9.64c14.89-13.35,33.55-20.5,52.64-20.5c4.66,0,9.34,0.43,14.01,1.29l13.8,2.57
			L1097.18,1005.42z M1203.64,944.65c-9.87,28.88-35.7,48.28-64.27,48.28c-3.9,0-7.85-0.37-11.72-1.09l-4.28-0.8l8.07-12.31
			c13.9-21.2,35.74-34.76,59.76-37.11l13.95-1.36L1203.64,944.65z M1291.84,856.32c-3,35.45-29.09,63.52-62.05,66.74l-4.32,0.42
			l4.83-14.14c8.32-24.34,26.16-43.53,48.79-52.48l13.14-5.2L1291.84,856.32z M1355.79,746.44c5.64,35.08-12.82,69.46-43.88,81.74
			l-4.08,1.61l1.27-15c2.18-25.83,14.8-49.33,34.5-64.28l11.44-8.68L1355.79,746.44z M1368.4,713.68l-3.55,2.69l-2.39-14.84
			c-4.11-25.56,2.42-51.77,17.86-71.69l8.97-11.57l1.82,4.24C1405,654.81,1395.45,693.16,1368.4,713.68z"/>
	</g>
</g>
<g id="Layer_1">
</g>
</svg>
